# xmcd
#
# Track frame offsets: 
#        150
#        17737
#        42555
#        55252
#        68589
#        89187
#        99604
#        118857
#        132020
#        148030
#        172498
#        195622
#        213580
#        229135
#        238775
#        250125
#        261745
#        276843
#        286317
#        311804
#        324463
#
# Disc length: 4540 seconds
#
# Revision: 0
# Processed by: cddbd v1.5.2PL0 Copyright (c) Steve Scherf et al.
# Submitted via: ExactAudioCopyFreeDBPlugin 1.0
#
DISCID=5611ba15
DTITLE=Various Artist - Santa Wants Some Lovin'
DYEAR=2009
DGENRE=Soul
TTITLE0=Albert King - Santa Wants Some Lovin'
TTITLE1=Ruth Brown - Have Yourself A Merry Little Christmas
TTITLE2=Rance Allen Group - White Christmas
TTITLE3=Isaac Hayes - Winter Snow
TTITLE4=Albert King - Christmas Comes But Once A Year
TTITLE5=The Staple Singers - Silent Night
TTITLE6=Temprees - It's Christmas Time (The Christmas Song)
TTITLE7=Little Johnny Taylor - Please Come Home For Christmas
TTITLE8=The Dramatics - Santa Claus Is Coming To Town
TTITLE9=The Dramatics - The Christmas Song
TTITLE10=Nnenna Freelon - Spiritual Medley - Vocal
TTITLE11=Isaac Hayes - The Mistletoe And Me
TTITLE12=The Emotions - What Do The lonely Do At Christmas
TTITLE13=Booker T. and The MG's - Winter Wonderland
TTITLE14=The Staple Singers - Who Took The Merry Out Of Christmas
TTITLE15=Otis Redding - Merry Christmas, Baby
TTITLE16=Victoria Spivey and Lonnie Johnson - Christmas Without Santa Cl
TTITLE16=aus
TTITLE17=The Staple Singers - O Little Town Of Betlehem
TTITLE18=Rufus Thomas and Carla Thomas - That Makes Christmas Day
TTITLE19=The Emotions - Black Christmas
TTITLE20=Rufus Thomas - I'll Be your Santa Baby
EXTD=
EXTT0=
EXTT1=
EXTT2=
EXTT3=
EXTT4=
EXTT5=
EXTT6=
EXTT7=
EXTT8=
EXTT9=
EXTT10=
EXTT11=
EXTT12=
EXTT13=
EXTT14=
EXTT15=
EXTT16=
EXTT17=
EXTT18=
EXTT19=
EXTT20=
PLAYORDER=
